# xmcd CD database file
#
# Track frame offsets:
#	150
#	22875
#	45600
#	68325
#
# Disc length: 1210 seconds
#
# Revision: 0
# Processed by: cddbd v1.5.1PL2 Copyright (c) Steve Scherf et al.
# Submitted via: CDex 1.50beta8
#
DISCID=2304b804
DTITLE=Rie Yoshizawa Duet with　Kadomatsu.T - Never Gonna　Miss You
DYEAR=1900
DGENRE=Vocal
TTITLE0=Never Gonna Miss You
TTITLE1=Never Gonna Miss You 〜Female Version〜
TTITLE2=Never Gonna Miss You 〜Male Version
TTITLE3=Never Gonna Miss You 〜instrumental〜
EXTD=
EXTT0=
EXTT1=
EXTT2=
EXTT3=
PLAYORDER=
